<?xml version="1.0" encoding="UTF-8"?>
<svg id="a" data-name="Layer 1" xmlns="http://www.w3.org/2000/svg" viewBox="0 0 686.93 885.06">
  <g>
    <path d="M131.85,82.72C300.4-73.44,581.16,1.3,641.4,224.68c65.48,242.83-170.9,455.11-405.85,368.88C22.89,515.51-35.27,237.55,131.85,82.72ZM324.77,19.38C98.79,32.12-24.49,289.45,108.37,473.98c134.52,186.83,429.56,146.72,507.35-69.73C687.03,205.84,532.76,7.66,324.77,19.38Z" fill="#fff"/>
    <path d="M324.77,19.38c207.99-11.72,362.27,186.46,290.96,384.87-77.79,216.45-372.83,256.56-507.35,69.73C-24.49,289.45,98.79,32.12,324.77,19.38ZM321.77,37.37C105.09,50.19-5.2,307.09,132.19,476.14c124.79,153.54,370.78,125.46,456.39-53.07,92.41-192.69-57.58-398.08-266.82-385.7Z"/>
    <path d="M321.77,37.37c209.23-12.38,359.23,193.01,266.82,385.7-85.62,178.53-331.6,206.61-456.39,53.07C-5.2,307.09,105.09,50.19,321.77,37.37ZM443.86,103.03c-1.09-1.27-1.93-.18-2,1.47-.42,9.65-2.11,24.66-5.26,33.72-7.17,20.69-29.86,18.52-47.7,22.24,11.65,3.2,24.13,2.27,35.35,7.62,16.91,8.06,14.81,32.16,18.11,47.84,1.43.04,2.23-13.96,2.64-16.35,1.07-6.29,2.23-13.43,4.68-19.3,7.72-18.48,30.46-17.53,47.14-20.8-20.02-4.66-41.74.34-48.68-24.26-2.77-9.84-3.91-22-4.28-32.18ZM153.16,419.71l223.55-56.67c30.79-7.74,55.18-27.59,82.47-42.41,34.18-18.56,69.58-34.39,102.89-54.96,6.16-3.8,19.5-11.34,21.91-18.09,1.48-4.17-1.54-7.25-4.74-9.69-6.84-5.23-19.9-5.35-28.67-7.29-9.37-2.08-21.27-6.91-30.28-7.69-21.12-1.82-36.53,3.55-55.42,11.51-67.17,28.3-132.14,65.53-199.19,94.52l-76.56,37.83c-.15,1.3,2.29,1.78,3.31,2.16,9.68,3.61,19.86.42,29.66-1.66,16.38-3.47,32.55-8.39,48.92-12.02,35.63-7.91,72.08-14.56,108.41-18.47,1.05-.11,3.76-.69,3.49.99-67.87,17.48-132.42,45.14-198.06,69.19l-31.71,12.73ZM281.03,308.83c-9.42-1.03-18.47-4.39-26.86-8.61-23.47-11.81-44.65-28.62-67.77-41.12l-10.77-.23-57.44,8.01,24.76,7.7c9.61,1.92,19.34,3.72,29.18,3.29.23,1.44-1.68,1.31-2.74,1.73-3.66,1.45-7.58,2.34-11.23,3.75l55.58,59.31,67.3-33.82Z" fill="#fff"/>
    <path d="M153.16,419.71l31.71-12.73c65.63-24.04,130.19-51.71,198.06-69.19.27-1.68-2.44-1.11-3.49-.99-36.33,3.91-72.78,10.56-108.41,18.47-16.37,3.63-32.54,8.55-48.92,12.02-9.81,2.08-19.99,5.26-29.66,1.66-1.03-.38-3.46-.87-3.31-2.16l76.56-37.83c67.05-28.99,132.02-66.23,199.19-94.52,18.89-7.96,34.3-13.33,55.42-11.51,9.01.78,20.91,5.61,30.28,7.69,8.77,1.95,21.83,2.06,28.67,7.29,3.2,2.44,6.22,5.53,4.74,9.69-2.41,6.76-15.75,14.29-21.91,18.09-33.31,20.57-68.71,36.39-102.89,54.96-27.29,14.82-51.68,34.66-82.47,42.41l-223.55,56.67ZM537.78,239.88c-3.31-3.1-10.14-7.5-14.59-7.95-3.27-.33-19.94,3.25-23.09,4.74-5.08,2.4-6.47,7.95-6.27,13.21l43.95-9.99ZM444.87,271.86c-11.09-3.09-11.69,8.32-11.04,16.53.61,7.62,11.04,1.27,11.04-2.05v-14.49ZM413.77,284.97c-4.14-1.48-9.19,1.91-10.42,5.81-.8,2.53-1.36,14.1,1.19,14.94,11.42.89,11.98-12.52,9.24-20.75ZM379.65,298.98c-7.34,1.47-7.7,12.51-6.7,18.32,1.37,7.99,10.94.43,11.92-6.03.65-4.29,1.35-13.6-5.22-12.29Z"/>
    <path d="M281.03,308.83l-67.3,33.82-55.58-59.31c3.66-1.41,7.57-2.3,11.23-3.75,1.06-.42,2.98-.29,2.74-1.73-9.84.43-19.57-1.37-29.18-3.29l-24.76-7.7,57.44-8.01,10.77.23c23.12,12.5,44.3,29.31,67.77,41.12,8.39,4.22,17.45,7.58,26.86,8.61Z"/>
    <path d="M443.86,103.03c.37,10.18,1.51,22.34,4.28,32.18,6.93,24.6,28.66,19.6,48.68,24.26-16.68,3.27-39.42,2.32-47.14,20.8-2.45,5.87-3.61,13.01-4.68,19.3-.41,2.4-1.21,16.39-2.64,16.35-3.29-15.68-1.2-39.78-18.11-47.84-11.22-5.35-23.69-4.42-35.35-7.62,17.83-3.72,40.52-1.55,47.7-22.24,3.14-9.06,4.83-24.08,5.26-33.72.07-1.65.91-2.74,2-1.47Z"/>
    <path d="M537.78,239.88l-43.95,9.99c-.21-5.26,1.19-10.8,6.27-13.21,3.15-1.49,19.82-5.06,23.09-4.74,4.46.45,11.29,4.85,14.59,7.95Z" fill="#fff"/>
    <path d="M379.65,298.98c6.57-1.31,5.87,7.99,5.22,12.29-.98,6.46-10.55,14.02-11.92,6.03-1-5.81-.64-16.85,6.7-18.32Z" fill="#fff"/>
    <path d="M413.77,284.97c2.75,8.23,2.19,21.63-9.24,20.75-2.54-.83-1.99-12.41-1.19-14.94,1.24-3.9,6.28-7.28,10.42-5.81Z" fill="#fff"/>
    <path d="M444.87,271.86v14.49c0,3.31-10.43,9.67-11.04,2.05-.65-8.21-.05-19.62,11.04-16.53Z" fill="#fff"/>
  </g>
  <g>
    <path d="M79.95,694.84c-7.06,5.78-16.38,8.67-27.77,8.67-5.62,0-10.6-.64-15.25-1.93v42.22h13.65v1.93H6.42v-1.93h13.81v-103.23H6.42v-1.93h43.51c12.68,0,22.64,3.21,29.86,9.63s10.92,14.45,10.92,24.08-3.53,16.7-10.76,22.48ZM49.93,640.58h-13v58.6c3.69,1.61,8.67,2.41,15.25,2.41,14.29,0,22.15-8.51,22.15-29.22s-9.79-31.79-24.4-31.79Z" fill="#fff"/>
    <path d="M205.33,741.23c-3.37,3.53-7.87,5.3-13.49,5.3-13.32,0-21.99-8.83-21.99-29.22v-8.19c0-12.2-7.71-18.3-23.28-18.3h-13.81v52.98h17.02v1.93h-47.36v-1.93h13.81v-103.23h-13.81v-1.93h44.79c10.76,0,19.26,2.57,25.53,7.55,6.42,4.98,9.63,11.24,9.63,18.78,0,6.9-3.05,12.84-9.15,17.82-5.94,4.82-13.32,7.22-21.83,7.22,23.6,0,35.48,11.24,35.48,29.22v11.88c0,7.71,3.37,12.68,8.99,12.68,3.37,0,6.1-1.28,8.35-3.69l1.12,1.12ZM143.52,640.58h-10.76v48.48h13.81c7.55,0,12.52-1.61,15.25-4.66,2.73-3.21,4.01-9.47,4.01-18.94,0-17.98-7.71-24.88-22.31-24.88Z" fill="#fff"/>
    <path d="M248.35,745.73h-44.15v-1.93h13.81v-103.23h-13.81v-1.93h44.15v1.93h-13.81v103.23h13.81v1.93Z" fill="#fff"/>
    <path d="M328.46,729.68c-2.41,4.98-6.42,9.31-12.04,13s-12.04,5.62-19.26,5.62c-4.01,0-8.67-.96-13.81-3.05-4.98-2.09-8.35-3.21-9.95-3.21-4.01,0-7.38,2.89-8.03,5.94h-1.61v-33.71h1.61c0,6.9,3.05,14.13,9.15,21.51,6.26,7.22,13.65,10.92,22.48,10.92,8.03,0,14.45-2.09,19.26-6.42,4.98-4.33,7.38-9.31,7.38-14.61,0-6.74-2.25-11.88-6.9-15.25-4.5-3.53-13-7.54-25.37-12.2-15.89-5.78-24.88-14.13-24.88-30.66,0-8.51,2.73-15.73,8.19-21.99,5.46-6.26,11.88-9.47,19.43-9.47,3.05,0,6.58.64,10.27,2.09,3.69,1.28,6.42,1.93,8.03,1.93,3.69,0,5.62-1.12,6.1-3.53h1.61v25.37h-1.61c0-6.9-2.41-12.68-7.38-17.18-4.98-4.66-10.6-6.9-16.86-6.9-5.62,0-10.43,1.93-14.45,5.94-4.01,3.85-5.94,8.35-5.94,13.65,0,10.76,8.19,17.98,27.29,25.04,10.76,3.85,18.46,8.03,23.44,12.68s7.54,11.24,7.54,19.75c0,4.82-1.28,9.79-3.69,14.77Z" fill="#fff"/>
    <path d="M423.33,671.4h-1.61c0-18.62-9.47-30.82-29.86-30.82h-3.37v103.23h13.81v1.93h-44.15v-1.93h13.65v-103.23h-3.21c-20.39,0-29.22,12.04-29.22,30.82h-1.61v-32.75h85.57v32.75Z" fill="#fff"/>
    <path d="M477.59,745.73h-44.15v-1.93h13.81v-103.23h-13.81v-1.93h44.15v1.93h-13.81v103.23h13.81v1.93Z" fill="#fff"/>
    <path d="M571.99,745.73l-66.62-103.71v97.12c0,3.05,1.77,4.66,5.46,4.66h8.35v1.93h-29.38v-1.93h8.35c3.53,0,5.3-1.61,5.3-4.66v-98.57h-13.65v-1.93h32.75l50.73,79.31v-72.88c0-3.05-1.77-4.5-5.46-4.5h-8.35v-1.93h29.38v1.93h-8.19c-3.69,0-5.62,1.45-5.62,4.5v100.66h-3.05Z" fill="#fff"/>
    <path d="M682.76,745.73h-83.32v-1.93h13.81v-103.23h-13.81v-1.93h75.61v28.25h-1.61c0-15.41-8.03-26.33-25.37-26.33h-18.3v49.12h6.26c11.72,0,18.46-6.58,18.46-17.02h1.61v36.12h-1.61c0-10.43-6.74-17.18-18.46-17.18h-6.26v52.17h18.62c22.64,0,32.75-12.2,32.75-29.38h1.61v31.3Z" fill="#fff"/>
    <path d="M248.81,778.03h-9.46v54.78c0,11.99-7.04,19.03-19.47,19.03-4.4,0-8.14-1.32-11.22-3.85-2.97-2.53-4.51-5.39-4.51-8.58,0-4.07,2.97-7.04,6.16-7.04s5.72,2.75,5.72,5.94c0,1.65-.66,3.08-1.87,4.18-1.21.99-1.76,2.09-1.76,3.19,0,2.64,2.86,5.06,6.82,5.06,4.4,0,8.8-3.3,8.8-8.58v-64.13h-9.35v-1.32h30.14v1.32Z" fill="#fff"/>
    <path d="M328.67,850.08h-57.09v-1.32h9.46v-70.73h-9.46v-1.32h51.81v19.36h-1.1c0-10.56-5.5-18.04-17.38-18.04h-12.54v33.66h4.29c8.03,0,12.65-4.51,12.65-11.66h1.1v24.75h-1.1c0-7.15-4.62-11.77-12.65-11.77h-4.29v35.75h12.76c15.51,0,22.44-8.36,22.44-20.13h1.1v21.45Z" fill="#fff"/>
    <path d="M409.19,799.15h-1.1c0-12.76-6.49-21.12-20.46-21.12h-2.31v70.73h9.46v1.32h-30.25v-1.32h9.35v-70.73h-2.2c-13.97,0-20.02,8.25-20.02,21.12h-1.1v-22.44h58.63v22.44Z" fill="#fff"/>
    <path d="M478.71,839.08c-1.65,3.41-4.4,6.38-8.25,8.91s-8.25,3.85-13.2,3.85c-2.75,0-5.94-.66-9.46-2.09-3.41-1.43-5.72-2.2-6.82-2.2-2.75,0-5.06,1.98-5.5,4.07h-1.1v-23.1h1.1c0,4.73,2.09,9.68,6.27,14.74,4.29,4.95,9.35,7.48,15.4,7.48,5.5,0,9.9-1.43,13.2-4.4,3.41-2.97,5.06-6.38,5.06-10.01,0-4.62-1.54-8.14-4.73-10.45-3.08-2.42-8.91-5.17-17.38-8.36-10.89-3.96-17.05-9.68-17.05-21.01,0-5.83,1.87-10.78,5.61-15.07,3.74-4.29,8.14-6.49,13.31-6.49,2.09,0,4.51.44,7.04,1.43,2.53.88,4.4,1.32,5.5,1.32,2.53,0,3.85-.77,4.18-2.42h1.1v17.38h-1.1c0-4.73-1.65-8.69-5.06-11.77-3.41-3.19-7.26-4.73-11.55-4.73-3.85,0-7.15,1.32-9.9,4.07-2.75,2.64-4.07,5.72-4.07,9.35,0,7.37,5.61,12.32,18.7,17.16,7.37,2.64,12.65,5.5,16.06,8.69,3.41,3.19,5.17,7.7,5.17,13.53,0,3.3-.88,6.71-2.53,10.12Z" fill="#fff"/>
  </g>
</svg>