<?xml version="1.0" encoding="UTF-8"?>
<svg id="a" data-name="Layer 1" xmlns="http://www.w3.org/2000/svg" viewBox="0 0 1108.63 1010.49">
  <path d="M189.98,604.07c16.18-4.03,31.87-9.78,47.76-14.75,106.74-33.37,213.38-77.45,316.12-121.88,1.97-.85,13.09-5.77,13.09-6.89-4.82-3.89-12.34.57-17.56,1.42-88.23,14.48-180.47,30.25-267.63,52.37-64.15,16.29-127.72,40.93-187.16,69.84-2.68,1.3-15.22,9.25-16.64,7.85-.2-.2-.16-2.52.48-3.01,32-27.03,65.07-52.83,100.2-75.8,72.68-47.51,144.41-69.04,224.3-99.7,138.04-52.99,275.58-107.86,414.74-158.26,19.69-7.13,48.71-19.63,68.08-23.92,34.83-7.72,69.03,13.35,101.81,19.6,22.59,4.31,67.11,3.1,84.4,17.6,17.87,14.99-11.46,34.47-23.12,42.9-44.76,32.35-105.76,62.73-155.68,87.32-136.22,67.12-276.71,128.56-425.15,162.85-72.41,16.73-144.04,29.37-217.69,39.31-14.63,1.98-31.44,4.81-45.89,6.11-1.66.15-17.38,1-14.48-2.97ZM974.97,261.06c-5.71-.46-10.86,2.47-16.51,2.98-7.78.71-23.62-1.61-29.78.22-1.96.58-5.53,5.6-7.77,7.23-6.27,4.56-23.85,9.51-20.74,19.86,1.65,5.51,11.56.4,15.5-1.1,16.16-6.16,39-15.78,53.99-24.01.71-.39,6.9-3.84,5.32-5.17ZM767.84,342.18c-7.62-1.78-22.98,2.49-26.35,9.89-1.81,3.99-.94,25.83,3.47,28.49,5.02,2.2,8.69-.91,12.94-2.07,3.54-.97,7.32.63,9.54-3.46l.39-32.85ZM679.12,398.91c9.04.53,24.92-2.42,25.9-13.31.76-8.37,1.26-22.62-9.05-25.13-4.17-1.02-16.46,4.8-17.79,9.28-.86,2.91-.45,28.29.94,29.15ZM628.68,381.26c-4.82,1.43-10.13,12.48-10.73,17.27-1.78,14.12,4.47,28.22,19.94,17.94,11.4-7.58,5.32-9.62,4.21-20.03-.51-4.8.5-9.69-.56-14.44-.97-1.4-10.88-1.32-12.86-.73Z" fill="#fff"/>
  <path d="M134.77,239.35c14.35-.88,18.42.21,30.87,6.54,63.02,32.09,123.19,79.73,187.46,110.54,22.98,11.02,45.21,10.26,70.42,9.66,2.67-.06,23.39-2.96,12.95,4.95-7.31,5.54-23.67,10.17-32.49,13.5-34.79,13.12-70.73,25.14-106.25,35.75-9,2.69-19.26,7.04-28.49,8.51-15.36,2.45-18.76-4.26-28.29-14.23-36.57-38.28-71.54-78.56-108.95-116.05-11.11-11.14-20.48-22.18-36.76-25.24-20.55-3.85-43.8-9.1-63.82-12.18-2.44-.38-9.66.96-10.43-1.59-1.94-6.46,12.52-5.13,15.41-5.55,31.82-4.58,66.49-12.67,98.37-14.63Z" fill="#fff"/>
  <path d="M897.96.06c4.48,20.96,6.8,45.5,15.28,65.24,14.82,34.53,45.69,29.79,77.2,35.8,8.44,1.61-4.39,5.28-7.22,5.72-17.78,2.74-48.9,4.71-62.28,17.72-10.7,10.4-17.76,42.65-20.71,57.29-.95,4.73.8,12.37-4.75,15.25-.65.01-1.4-4.5-1.5-5.52-2.76-28.48-10.97-72.18-43.8-80.2-14.67-3.58-31.55-4.58-46.63-6.4-1.21-.15-2.36-.7-3.54-.96l-.05-2.93c4.44.14,8.4-2.05,12.58-2.93,12.92-2.71,27.88-3.69,40.7-6.3,30.52-6.21,34.43-51.49,38.82-76.18.33-1.86,1.53-3.35,1.84-5.16.71-4.13-2.16-11.19,4.05-10.45Z" fill="#fff"/>
  <g>
    <path d="M36.43,772.87v62.3H0v-176.83h68.98c13.28,0,24.96,2.43,35.04,7.29,10.08,4.86,17.83,11.76,23.26,20.71,5.42,8.95,8.14,19.13,8.14,30.54,0,17.33-5.93,30.99-17.79,40.99-11.86,10-28.28,15-49.25,15h-31.94ZM36.43,743.36h32.55c9.63,0,16.98-2.27,22.04-6.8,5.06-4.53,7.59-11.01,7.59-19.43s-2.55-15.67-7.65-21.01c-5.1-5.34-12.15-8.1-21.13-8.26h-33.4v55.5Z" fill="#fff"/>
    <path d="M232.11,770.44h-29.03v64.73h-36.43v-176.83h65.7c20.89,0,37,4.66,48.34,13.97,11.33,9.31,17,22.47,17,39.47,0,12.07-2.61,22.12-7.83,30.18-5.22,8.06-13.14,14.47-23.74,19.25l38.26,72.26v1.7h-39.11l-33.16-64.73ZM203.09,740.93h29.39c9.15,0,16.23-2.33,21.25-6.98,5.02-4.66,7.53-11.07,7.53-19.25s-2.37-14.9-7.1-19.67c-4.74-4.78-12-7.17-21.8-7.17h-29.27v53.07Z" fill="#fff"/>
    <path d="M370.34,835.17h-36.43v-176.83h36.43v176.83Z" fill="#fff"/>
    <path d="M502.02,788.78c0-6.88-2.43-12.16-7.29-15.85-4.86-3.68-13.6-7.57-26.23-11.66-12.63-4.09-22.63-8.12-30-12.08-20.08-10.85-30.12-25.46-30.12-43.84,0-9.55,2.69-18.07,8.08-25.56,5.38-7.49,13.12-13.34,23.2-17.55,10.08-4.21,21.39-6.32,33.94-6.32s23.88,2.29,33.76,6.86c9.88,4.58,17.55,11.03,23.01,19.37,5.47,8.34,8.2,17.81,8.2,28.42h-36.43c0-8.1-2.55-14.39-7.65-18.89-5.1-4.49-12.27-6.74-21.5-6.74s-15.83,1.88-20.77,5.65c-4.94,3.76-7.41,8.73-7.41,14.88,0,5.75,2.89,10.57,8.68,14.45,5.79,3.89,14.31,7.53,25.56,10.93,20.73,6.24,35.83,13.97,45.3,23.2,9.47,9.23,14.21,20.73,14.21,34.49,0,15.3-5.79,27.31-17.37,36.01-11.58,8.71-27.16,13.06-46.76,13.06-13.6,0-25.99-2.49-37.16-7.47-11.17-4.98-19.7-11.8-25.56-20.46-5.87-8.66-8.81-18.7-8.81-30.12h36.56c0,19.51,11.66,29.27,34.98,29.27,8.66,0,15.42-1.76,20.28-5.28,4.86-3.52,7.29-8.44,7.29-14.76Z" fill="#fff"/>
    <path d="M702.55,687.86h-54.17v147.32h-36.43v-147.32h-53.44v-29.51h144.04v29.51Z" fill="#fff"/>
    <path d="M768.28,835.17h-36.43v-176.83h36.43v176.83Z" fill="#fff"/>
    <path d="M952.06,835.17h-36.43l-70.93-116.35v116.35h-36.43v-176.83h36.43l71.05,116.59v-116.59h36.31v176.83Z" fill="#fff"/>
    <path d="M1096.48,758.54h-69.95v47.37h82.1v29.27h-118.53v-176.83h118.29v29.51h-81.86v42.14h69.95v28.54Z" fill="#fff"/>
  </g>
  <g>
    <path d="M355.17,872.79h27.99v94.03c0,8.65-1.91,16.28-5.74,22.9-3.82,6.62-9.22,11.74-16.19,15.35-6.97,3.61-14.83,5.41-23.6,5.41-14.37,0-25.56-3.65-33.58-10.96-8.02-7.31-12.03-17.65-12.03-31.02h28.17c0,6.66,1.4,11.57,4.2,14.74s7.21,4.76,13.25,4.76c5.35,0,9.61-1.83,12.78-5.5,3.17-3.67,4.76-8.89,4.76-15.67v-94.03Z" fill="#fff"/>
    <path d="M512.74,949.76h-53.73v36.38h63.06v22.48h-91.05v-135.83h90.86v22.67h-62.88v32.37h53.73v21.92Z" fill="#fff"/>
    <path d="M666.48,895.46h-41.61v113.16h-27.99v-113.16h-41.05v-22.67h110.64v22.67Z" fill="#fff"/>
    <path d="M775.25,972.99c0-5.29-1.87-9.34-5.6-12.17-3.73-2.83-10.45-5.81-20.15-8.96-9.7-3.14-17.38-6.23-23.04-9.28-15.42-8.33-23.14-19.56-23.14-33.68,0-7.34,2.07-13.88,6.2-19.64,4.13-5.75,10.08-10.25,17.82-13.48,7.74-3.23,16.43-4.85,26.07-4.85s18.35,1.76,25.93,5.27c7.59,3.51,13.48,8.47,17.68,14.88,4.2,6.41,6.3,13.68,6.3,21.83h-27.99c0-6.22-1.96-11.05-5.88-14.51-3.92-3.45-9.42-5.18-16.51-5.18s-12.16,1.45-15.95,4.34c-3.79,2.89-5.69,6.7-5.69,11.43,0,4.42,2.22,8.12,6.67,11.1,4.45,2.99,10.99,5.78,19.64,8.4,15.92,4.79,27.52,10.73,34.8,17.82,7.28,7.09,10.92,15.92,10.92,26.49,0,11.75-4.45,20.97-13.34,27.66-8.89,6.69-20.87,10.03-35.92,10.03-10.45,0-19.96-1.91-28.55-5.74-8.58-3.83-15.13-9.06-19.64-15.72-4.51-6.65-6.76-14.37-6.76-23.13h28.08c0,14.99,8.96,22.48,26.87,22.48,6.65,0,11.85-1.35,15.58-4.06s5.6-6.48,5.6-11.33Z" fill="#fff"/>
  </g>
</svg>